# Blender 4.4.3
# www.blender.org
o Cube.002
v 2.800000 2.100000 5.350000 0.1090 0.1090 0.1090
v 5.300000 2.100000 5.350000 1.0000 1.0000 1.0000
v 5.300000 2.100000 0.000000 1.0000 1.0000 1.0000
v 5.800000 -0.000000 0.000000 1.0000 1.0000 1.0000
v 5.800000 2.100000 0.000000 1.0000 1.0000 1.0000
v 2.800000 4.100000 5.350000 1.0000 1.0000 1.0000
v 5.300000 4.100000 0.000000 1.0000 1.0000 1.0000
v 5.300000 4.100000 5.350000 1.0000 1.0000 1.0000
v 2.800000 2.100000 0.000000 0.1104 0.1104 0.1104
v 5.300000 3.100000 0.000000 1.0000 1.0000 1.0000
v 5.300000 3.100000 5.350000 1.0000 1.0000 1.0000
v 0.000000 4.100000 5.350000 1.0000 1.0000 1.0000
v 0.000000 3.100000 5.350000 0.3931 0.3931 0.3931
v 0.000000 3.100000 0.000000 0.1222 0.1222 0.1222
v 2.000000 3.100000 5.350000 0.2456 0.2456 0.2456
v 2.800000 2.300000 5.350000 0.1943 0.1943 0.1943
v 3.600000 3.100000 5.350000 1.0000 1.0000 1.0000
v 2.800000 3.900000 5.350000 1.0000 1.0000 1.0000
v 2.400000 2.992820 5.350000 0.2395 0.2395 0.2395
v 2.692820 2.700000 5.350000 0.2020 0.2020 0.2020
v 2.800000 2.300000 0.000000 0.2022 0.2022 0.2022
v 2.000000 3.100000 0.000000 0.1787 0.1787 0.1787
v 2.692820 2.700000 0.000000 0.1985 0.1985 0.1985
v 2.400000 2.992820 0.000000 0.1936 0.1936 0.1936
v 2.600000 2.100000 0.000000 0.1831 0.1831 0.1831
v 2.600000 -0.000000 0.000000 0.1660 0.1660 0.1660
v 3.000000 -0.000000 5.900000 1.0000 1.0000 1.0000
v 2.600000 -0.000000 5.500000 0.1839 0.1839 0.1839
v 2.800000 -0.000000 5.846410 1.0000 1.0000 1.0000
v 2.653590 -0.000000 5.700000 0.7545 0.7545 0.7545
v 5.800000 -0.000000 5.500000 1.0000 1.0000 1.0000
v 5.400000 -0.000000 5.900000 1.0000 1.0000 1.0000
v 5.746410 -0.000000 5.700000 1.0000 1.0000 1.0000
v 5.600000 -0.000000 5.846410 1.0000 1.0000 1.0000
v 2.600000 2.100000 5.500000 0.2186 0.2186 0.2186
v 3.000000 2.100000 5.900000 1.0000 1.0000 1.0000
v 0.000000 3.100000 4.675000 0.1560 0.1560 0.1560
v 2.653590 2.100000 5.700000 0.8382 0.8382 0.8382
v 2.800000 2.100000 5.846410 1.0000 1.0000 1.0000
v 5.400000 2.100000 5.900000 1.0000 1.0000 1.0000
v 5.800000 2.100000 5.500000 1.0000 1.0000 1.0000
v 5.530931 2.100000 5.604024 1.0000 1.0000 1.0000
v 5.600000 2.100000 5.846410 1.0000 1.0000 1.0000
v 5.746410 2.100000 5.700000 1.0000 1.0000 1.0000
v 3.120000 4.320000 0.000000 1.0000 1.0000 1.0000
v 3.120000 4.320000 5.845000 1.0000 1.0000 1.0000
v 5.870000 4.320000 0.000000 1.0000 1.0000 1.0000
v 5.870000 4.320000 5.845000 1.0000 1.0000 1.0000
v 0.000000 4.320000 0.000000 1.0000 1.0000 1.0000
v 0.000000 4.320000 5.845000 1.0000 1.0000 1.0000
v 2.600000 -0.000000 2.750000 0.1513 0.1513 0.1513
v 2.600000 2.100000 2.750000 0.1838 0.1838 0.1838
v 2.000000 3.100000 2.675000 0.1843 0.1843 0.1843
v 2.400000 2.992820 2.675000 0.2056 0.2056 0.2056
v 2.692820 2.700000 2.675000 0.2062 0.2062 0.2062
v 2.800000 2.300000 2.675000 0.1951 0.1951 0.1951
v 2.800000 2.100000 2.675000 0.1018 0.1018 0.1018
v -2.800000 2.100000 5.350000 1.0000 1.0000 1.0000
v -5.300000 2.100000 5.350000 0.3745 0.3745 0.3745
v -5.300000 2.100000 0.000000 0.3072 0.3072 0.3072
v -5.800000 -0.000000 0.000000 0.1526 0.1526 0.1526
v -5.800000 2.100000 0.000000 0.3707 0.3707 0.3707
v -2.800000 4.100000 5.350000 1.0000 1.0000 1.0000
v -5.300000 4.100000 0.000000 0.2294 0.2294 0.2294
v -5.300000 4.100000 5.350000 0.2115 0.2115 0.2115
v -2.800000 2.100000 0.000000 0.2176 0.2176 0.2176
v -5.300000 3.100000 0.000000 0.3216 0.3216 0.3216
v -5.300000 3.100000 5.350000 0.3466 0.3466 0.3466
v -2.000000 3.100000 5.350000 0.4242 0.4242 0.4242
v -2.800000 2.300000 5.350000 0.9932 0.9932 0.9932
v -3.600000 3.100000 5.350000 1.0000 1.0000 1.0000
v -2.800000 3.900000 5.350000 1.0000 1.0000 1.0000
v -2.400000 2.992820 5.350000 0.6218 0.6218 0.6218
v -2.692820 2.700000 5.350000 0.6683 0.6683 0.6683
v -2.800000 2.300000 0.000000 0.2617 0.2617 0.2617
v -2.000000 3.100000 0.000000 0.1963 0.1963 0.1963
v -2.692820 2.700000 0.000000 0.2548 0.2548 0.2548
v -2.400000 2.992820 0.000000 0.2192 0.2192 0.2192
v -2.600000 2.100000 0.000000 0.2620 0.2620 0.2620
v -2.600000 -0.000000 0.000000 0.2820 0.2820 0.2820
v -3.000000 -0.000000 5.900000 1.0000 1.0000 1.0000
v -2.600000 -0.000000 5.500000 1.0000 1.0000 1.0000
v -2.800000 -0.000000 5.846410 1.0000 1.0000 1.0000
v -2.653590 -0.000000 5.700000 1.0000 1.0000 1.0000
v -5.800000 -0.000000 5.500000 0.1917 0.1917 0.1917
v -5.400000 -0.000000 5.900000 0.2565 0.2565 0.2565
v -5.746410 -0.000000 5.700000 0.2014 0.2014 0.2014
v -5.600000 -0.000000 5.846410 0.2233 0.2233 0.2233
v -2.600000 2.100000 5.500000 0.7216 0.7216 0.7216
v -3.000000 2.100000 5.900000 1.0000 1.0000 1.0000
v -2.653590 2.100000 5.700000 0.9964 0.9964 0.9964
v -2.800000 2.100000 5.846410 1.0000 1.0000 1.0000
v -5.400000 2.100000 5.900000 0.6001 0.6001 0.6001
v -5.800000 2.100000 5.500000 0.4154 0.4154 0.4154
v -5.530931 2.100000 5.604024 0.5186 0.5186 0.5186
v -5.600000 2.100000 5.846410 0.5368 0.5368 0.5368
v -5.746410 2.100000 5.700000 0.5184 0.5184 0.5184
v -3.120000 4.320000 0.000000 1.0000 1.0000 1.0000
v -3.120000 4.320000 5.845000 1.0000 1.0000 1.0000
v -5.870000 4.320000 0.000000 0.5581 0.5581 0.5581
v -5.870000 4.320000 5.845000 0.5791 0.5791 0.5791
v -2.600000 -0.000000 2.750000 0.3103 0.3103 0.3103
v -2.600000 2.100000 2.750000 0.2912 0.2912 0.2912
v -2.000000 3.100000 3.845000 0.2535 0.2535 0.2535
v -2.400000 2.992820 3.424000 0.2511 0.2511 0.2511
v -2.692820 2.700000 2.675000 0.2779 0.2779 0.2779
v -2.800000 2.300000 2.675000 0.2928 0.2928 0.2928
v -2.800000 2.100000 2.675000 0.2435 0.2435 0.2435
v 2.800000 2.100000 -5.350000 0.1090 0.1090 0.1090
v 5.300000 2.100000 -5.350000 1.0000 1.0000 1.0000
v 2.800000 4.100000 -5.350000 1.0000 1.0000 1.0000
v 5.300000 4.100000 -5.350000 1.0000 1.0000 1.0000
v 5.300000 3.100000 -5.350000 1.0000 1.0000 1.0000
v 0.000000 4.100000 -5.350000 1.0000 1.0000 1.0000
v 0.000000 3.100000 -5.350000 0.3895 0.3895 0.3895
v 2.000000 3.100000 -5.350000 0.2453 0.2453 0.2453
v 2.800000 2.300000 -5.350000 0.1943 0.1943 0.1943
v 3.600000 3.100000 -5.350000 1.0000 1.0000 1.0000
v 2.800000 3.900000 -5.350000 1.0000 1.0000 1.0000
v 2.400000 2.992820 -5.350000 0.2394 0.2394 0.2394
v 2.692820 2.700000 -5.350000 0.2020 0.2020 0.2020
v 3.000000 -0.000000 -5.900000 1.0000 1.0000 1.0000
v 2.600000 -0.000000 -5.500000 0.1839 0.1839 0.1839
v 2.800000 -0.000000 -5.846410 1.0000 1.0000 1.0000
v 2.653590 -0.000000 -5.700000 0.7545 0.7545 0.7545
v 5.800000 -0.000000 -5.500000 1.0000 1.0000 1.0000
v 5.400000 -0.000000 -5.900000 1.0000 1.0000 1.0000
v 5.746410 -0.000000 -5.700000 1.0000 1.0000 1.0000
v 5.600000 -0.000000 -5.846410 1.0000 1.0000 1.0000
v 2.600000 2.100000 -5.500000 0.2186 0.2186 0.2186
v 3.000000 2.100000 -5.900000 1.0000 1.0000 1.0000
v 0.000000 3.100000 -4.675000 0.1560 0.1560 0.1560
v 2.653590 2.100000 -5.700000 0.8382 0.8382 0.8382
v 2.800000 2.100000 -5.846410 1.0000 1.0000 1.0000
v 5.400000 2.100000 -5.900000 1.0000 1.0000 1.0000
v 5.800000 2.100000 -5.500000 1.0000 1.0000 1.0000
v 5.530931 2.100000 -5.604024 1.0000 1.0000 1.0000
v 5.600000 2.100000 -5.846410 1.0000 1.0000 1.0000
v 5.746410 2.100000 -5.700000 1.0000 1.0000 1.0000
v 3.120000 4.320000 -5.845000 1.0000 1.0000 1.0000
v 5.870000 4.320000 -5.845000 1.0000 1.0000 1.0000
v 0.000000 4.320000 -5.845000 1.0000 1.0000 1.0000
v 2.600000 -0.000000 -2.750000 0.1513 0.1513 0.1513
v 2.600000 2.100000 -2.750000 0.1838 0.1838 0.1838
v 2.000000 3.100000 -2.675000 0.1843 0.1843 0.1843
v 2.400000 2.992820 -2.675000 0.2055 0.2055 0.2055
v 2.692820 2.700000 -2.675000 0.2061 0.2061 0.2061
v 2.800000 2.300000 -2.675000 0.1951 0.1951 0.1951
v 2.800000 2.100000 -2.675000 0.1018 0.1018 0.1018
v -2.800000 2.100000 -5.350000 1.0000 1.0000 1.0000
v -5.300000 2.100000 -5.350000 0.3745 0.3745 0.3745
v -2.800000 4.100000 -5.350000 1.0000 1.0000 1.0000
v -5.300000 4.100000 -5.350000 0.2115 0.2115 0.2115
v -5.300000 3.100000 -5.350000 0.3466 0.3466 0.3466
v -2.000000 3.100000 -5.350000 0.4241 0.4241 0.4241
v -2.800000 2.300000 -5.350000 0.9932 0.9932 0.9932
v -3.600000 3.100000 -5.350000 1.0000 1.0000 1.0000
v -2.800000 3.900000 -5.350000 1.0000 1.0000 1.0000
v -2.400000 2.992820 -5.350000 0.6215 0.6215 0.6215
v -2.692820 2.700000 -5.350000 0.6681 0.6681 0.6681
v -3.000000 -0.000000 -5.900000 1.0000 1.0000 1.0000
v -2.600000 -0.000000 -5.500000 1.0000 1.0000 1.0000
v -2.800000 -0.000000 -5.846410 1.0000 1.0000 1.0000
v -2.653590 -0.000000 -5.700000 1.0000 1.0000 1.0000
v -5.800000 -0.000000 -5.500000 0.1917 0.1917 0.1917
v -5.400000 -0.000000 -5.900000 0.2565 0.2565 0.2565
v -5.746410 -0.000000 -5.700000 0.2014 0.2014 0.2014
v -5.600000 -0.000000 -5.846410 0.2233 0.2233 0.2233
v -2.600000 2.100000 -5.500000 0.7216 0.7216 0.7216
v -3.000000 2.100000 -5.900000 1.0000 1.0000 1.0000
v -2.653590 2.100000 -5.700000 0.9964 0.9964 0.9964
v -2.800000 2.100000 -5.846410 1.0000 1.0000 1.0000
v -5.400000 2.100000 -5.900000 0.6001 0.6001 0.6001
v -5.800000 2.100000 -5.500000 0.4154 0.4154 0.4154
v -5.530931 2.100000 -5.604024 0.5186 0.5186 0.5186
v -5.600000 2.100000 -5.846410 0.5368 0.5368 0.5368
v -5.746410 2.100000 -5.700000 0.5184 0.5184 0.5184
v -3.120000 4.320000 -5.845000 1.0000 1.0000 1.0000
v -5.870000 4.320000 -5.845000 0.5791 0.5791 0.5791
v -2.600000 -0.000000 -2.750000 0.3103 0.3103 0.3103
v -2.600000 2.100000 -2.750000 0.2912 0.2912 0.2912
v -2.000000 3.100000 -3.845000 0.2535 0.2535 0.2535
v -2.400000 2.992820 -3.424000 0.2476 0.2476 0.2476
v -2.692820 2.700000 -2.675000 0.2773 0.2773 0.2773
v -2.800000 2.300000 -2.675000 0.2928 0.2928 0.2928
v -2.800000 2.100000 -2.675000 0.2435 0.2435 0.2435
vn -0.0000 -0.0000 1.0000
vn -1.0000 -0.0000 -0.0000
vn -0.5000 -0.8660 -0.0000
vn -0.8660 -0.5000 -0.0000
vn -0.0000 -0.9138 0.4061
vn -0.9914 -0.1305 -0.0000
vn 1.0000 -0.0000 -0.0000
vn -0.1305 -0.9914 -0.0000
vn -0.0000 -1.0000 -0.0000
vn 0.1818 -0.9591 0.2169
vn -0.0000 1.0000 -0.0000
vn 0.9914 -0.0000 0.1305
vn -0.9914 -0.0000 0.1305
vn -0.8660 -0.0000 0.5000
vn -0.5000 -0.0000 0.8660
vn -0.1305 -0.0000 0.9914
vn 0.1305 -0.0000 0.9914
vn 0.5000 -0.0000 0.8660
vn 0.8660 -0.0000 0.5000
vn 0.3601 -0.9329 -0.0000
vn 0.2017 -0.9600 0.1943
vn 0.8660 -0.5000 -0.0000
vn 0.5000 -0.8660 -0.0000
vn 0.9914 -0.1305 -0.0000
vn 0.1305 -0.9914 -0.0000
vn -0.1818 -0.9591 0.2169
vn -0.3601 -0.9329 -0.0000
vn -0.0000 -0.0000 -1.0000
vn -0.0000 -0.9138 -0.4061
vn 0.1818 -0.9591 -0.2169
vn 0.9914 -0.0000 -0.1305
vn -0.8660 -0.0000 -0.5000
vn -0.9914 -0.0000 -0.1305
vn -0.5000 -0.0000 -0.8660
vn -0.1305 -0.0000 -0.9914
vn 0.5000 -0.0000 -0.8660
vn 0.1305 -0.0000 -0.9914
vn 0.8660 -0.0000 -0.5000
vn -0.1818 -0.9591 -0.2169
vn -0.2017 -0.9600 -0.1943
vn -0.2017 -0.9600 0.1943
vn 0.2017 -0.9600 -0.1943
vt 4.757119 2.788135
vt 3.374068 3.601694
vt 2.723220 2.950847
vt -1.792034 2.788135
vt 0.445254 1.079661
vt -1.792034 1.079661
vt -1.731017 3.514498
vt -3.907289 3.276271
vt -3.907289 3.514498
vt 2.723220 -3.272882
vt 0.445254 -3.675594
vt 0.445254 -3.272882
vt -3.907289 2.788135
vt -1.731017 2.950847
vt -1.731017 2.788135
vt 0.445254 3.601694
vt -3.907289 4.415255
vt -3.907289 3.601694
vt 0.445254 2.788135
vt 2.072373 -3.272882
vt 0.445254 -2.723730
vt 2.723220 4.252542
vt 0.445254 4.415255
vt 4.757119 -3.272882
vt 2.983559 -3.675594
vt 2.636024 3.276271
vt 4.944994 -3.479546
vt 2.671720 -3.414508
vt 2.885932 -3.720339
vt 2.072373 1.079661
vt 2.397796 -1.096610
vt 2.072373 -1.096610
vt 0.445254 3.514498
vt -1.731017 3.276271
vt 0.445254 3.276271
vt 4.757119 4.415255
vt 2.723220 4.415255
vt -4.029322 1.079661
vt 4.757119 1.079661
vt 5.163898 -3.394915
vt -3.907289 2.950847
vt 2.604107 -3.557627
vt 4.838475 -3.720339
vt 5.001186 -3.676741
vt 5.120300 -3.557627
vt -4.192034 2.788135
vt -4.029322 2.788135
vt 2.604107 1.079661
vt 2.723220 2.788135
vt 2.604107 2.788135
vt 2.723220 1.079661
vt 2.885932 2.788135
vt 4.838475 1.079661
vt 5.001186 2.788135
vt 4.838475 2.788135
vt 5.001186 1.079661
vt 5.120300 2.788135
vt -4.192034 1.079661
vt 2.885932 1.079661
vt 2.983559 1.079661
vt 5.220848 -3.675594
vt 5.220848 1.079661
vt 2.397796 -3.272882
vt 0.445254 1.079661
vt 0.445254 2.950847
vt 4.757119 3.601694
vt -2.340373 3.514498
vt 2.072373 -2.048475
vt 2.397796 -1.705966
vt 2.723220 -3.676741
vt 0.445254 -2.723729
vt -2.340374 3.514498
vt 2.072373 -2.048475
vt 2.397796 -1.705966
vt 2.072373 3.601694
vt 2.397796 3.514498
vt 2.397796 1.079661
vt 5.163898 1.079661
vt 2.560508 -3.394915
vt 5.120300 1.079661
s 1
f 2/1/1 17/2/1 16/3/1
f 52/4/2 26/5/2 51/6/2
f 54/7/3 20/8/4 19/9/3
f 6/10/5 50/11/5 12/12/5
f 1/13/2 56/14/6 57/15/2
f 10/16/7 8/17/7 11/18/7
f 3/19/7 11/18/7 2/13/7
f 15/20/8 13/12/9 37/21/9
f 18/22/1 12/23/1 13/16/1
f 8/24/10 46/25/5 6/10/5
f 20/26/1 17/2/1 18/22/1
f 42/27/11 1/28/11 36/29/11
f 22/30/8 54/31/3 53/32/8
f 24/33/3 55/34/4 54/7/3
f 23/35/4 56/14/6 55/34/4
f 17/2/1 8/36/1 6/37/1
f 5/19/7 31/38/12 4/5/7
f 3/39/11 42/27/11 41/40/11
f 55/34/4 16/41/6 20/8/4
f 38/42/11 36/29/11 1/28/11
f 40/43/11 43/44/11 42/27/11
f 43/44/11 44/45/11 42/27/11
f 44/45/11 41/40/11 42/27/11
f 28/38/13 38/46/14 35/47/13
f 30/48/14 39/49/15 38/50/14
f 29/51/15 36/52/16 39/49/15
f 32/53/17 43/54/18 40/55/17
f 34/56/18 44/57/19 43/54/18
f 33/58/19 41/47/12 44/46/19
f 40/55/17 27/59/16 32/53/17
f 45/60/11 48/61/11 47/62/11
f 45/60/11 50/11/11 46/25/11
f 8/24/10 47/62/20 48/61/21
f 35/47/13 51/6/2 28/38/13
f 53/32/8 19/63/3 15/20/8
f 53/32/8 14/64/9 22/30/8
f 57/15/2 21/65/6 9/19/2
f 1/13/11 52/4/11 35/47/11
f 25/19/11 57/15/11 9/19/11
f 70/3/1 68/66/1 59/1/1
f 80/5/7 103/4/7 102/6/7
f 74/8/22 105/67/23 73/9/23
f 50/11/5 63/10/5 12/12/5
f 107/14/24 58/13/7 108/15/7
f 65/17/2 67/16/2 68/18/2
f 68/18/2 60/19/2 59/13/2
f 37/21/9 69/20/25 104/68/25
f 13/16/1 63/37/1 72/22/1
f 99/25/5 65/24/26 63/10/5
f 72/22/1 70/3/1 74/26/1
f 90/29/11 59/24/11 95/27/11
f 105/69/23 76/30/25 104/68/25
f 106/34/22 78/33/23 105/67/23
f 107/14/24 77/35/22 106/34/22
f 63/37/1 68/66/1 71/2/1
f 85/38/13 62/19/2 61/5/2
f 94/40/11 59/24/11 60/39/11
f 70/41/24 106/34/22 74/8/22
f 58/28/11 92/70/11 91/42/11
f 93/43/11 95/27/11 96/44/11
f 96/44/11 95/27/11 97/45/11
f 97/45/11 95/27/11 94/40/11
f 91/46/19 82/38/12 89/47/12
f 92/49/18 84/48/19 91/50/19
f 90/52/17 83/51/18 92/49/18
f 96/54/15 86/53/16 93/55/16
f 97/57/14 88/56/15 96/54/15
f 94/47/13 87/58/14 97/46/14
f 81/59/17 93/55/16 86/53/16
f 101/61/11 98/60/11 100/62/11
f 50/11/11 98/60/11 99/25/11
f 65/24/26 100/62/27 64/39/27
f 102/6/7 103/4/7 89/47/12
f 73/63/23 104/68/25 69/20/25
f 14/64/9 104/68/25 76/30/25
f 75/65/24 108/15/7 66/19/7
f 58/13/11 103/4/11 108/15/11
f 108/15/11 79/19/11 66/19/11
f 117/3/28 113/66/28 110/1/28
f 26/5/2 144/4/2 143/6/2
f 121/8/4 146/7/3 120/9/3
f 142/11/29 111/10/29 114/12/29
f 148/14/6 109/13/2 149/15/2
f 112/17/7 10/16/7 113/18/7
f 113/18/7 3/19/7 110/13/7
f 132/71/9 115/12/9 116/20/8
f 115/16/28 111/37/28 119/22/28
f 140/25/29 112/24/30 111/10/29
f 119/22/28 117/3/28 121/26/28
f 131/29/11 110/24/11 137/27/11
f 146/31/3 22/30/8 145/32/8
f 147/34/4 24/33/3 146/7/3
f 148/14/6 23/35/4 147/34/4
f 111/37/28 113/66/28 118/2/28
f 126/38/31 5/19/7 4/5/7
f 136/40/11 110/24/11 3/39/11
f 117/41/6 147/34/4 121/8/4
f 109/28/11 134/70/11 133/42/11
f 135/43/11 137/27/11 138/44/11
f 138/44/11 137/27/11 139/45/11
f 139/45/11 137/27/11 136/40/11
f 133/46/32 123/38/33 130/47/33
f 134/49/34 125/48/32 133/50/32
f 131/52/35 124/51/34 134/49/34
f 138/54/36 127/53/37 135/55/37
f 139/57/38 129/56/36 138/54/36
f 136/47/31 128/58/38 139/46/38
f 122/59/35 135/55/37 127/53/37
f 141/61/11 45/60/11 47/62/11
f 142/11/11 45/60/11 140/25/11
f 112/24/30 47/62/20 7/39/20
f 143/6/2 130/47/33 123/38/33
f 120/63/3 145/32/8 116/20/8
f 14/64/9 145/32/8 22/30/8
f 21/65/6 149/15/2 9/19/2
f 109/13/11 144/4/11 149/15/11
f 149/15/11 25/19/11 9/19/11
f 151/1/28 157/2/28 156/3/28
f 181/4/7 80/5/7 180/6/7
f 183/72/23 160/8/22 159/9/23
f 152/10/29 142/11/29 114/12/29
f 150/13/7 185/14/24 186/15/7
f 67/16/2 153/17/2 154/18/2
f 60/19/2 154/18/2 151/13/2
f 155/20/25 132/71/9 182/73/25
f 158/22/28 114/23/28 115/16/28
f 153/24/39 178/25/29 152/10/29
f 160/26/28 157/2/28 158/22/28
f 175/27/11 150/28/11 170/29/11
f 76/30/25 183/74/23 182/73/25
f 78/33/23 184/34/22 183/72/23
f 77/35/22 185/14/24 184/34/22
f 157/2/28 153/36/28 152/37/28
f 62/19/2 165/38/33 61/5/2
f 60/39/11 175/27/11 174/40/11
f 184/34/22 156/41/24 160/8/22
f 171/42/11 170/29/11 150/28/11
f 173/43/11 176/44/11 175/27/11
f 176/44/11 177/45/11 175/27/11
f 177/45/11 174/40/11 175/27/11
f 162/38/31 171/46/38 169/47/31
f 164/48/38 172/49/36 171/50/38
f 163/51/36 170/52/37 172/49/36
f 166/53/35 176/54/34 173/55/35
f 168/56/34 177/57/32 176/54/34
f 167/58/32 174/47/33 177/46/32
f 173/55/35 161/59/37 166/53/35
f 98/60/11 179/61/11 100/62/11
f 98/60/11 142/11/11 178/25/11
f 153/24/39 100/62/27 179/61/40
f 169/47/31 181/4/7 180/6/7
f 182/73/25 159/63/23 155/20/25
f 182/73/25 14/64/9 76/30/25
f 186/15/7 75/65/24 66/19/7
f 150/13/11 181/4/11 169/47/11
f 79/19/11 186/15/11 66/19/11
f 82/38/12 102/6/7 89/47/12
f 162/38/31 169/47/31 180/6/7
f 53/32/8 15/20/8 37/21/9
f 145/32/8 132/71/9 116/20/8
f 16/3/1 1/49/1 2/1/1
f 2/1/1 11/66/1 17/2/1
f 52/4/2 25/19/2 26/5/2
f 54/7/3 55/34/4 20/8/4
f 6/10/5 46/25/5 50/11/5
f 1/13/2 16/41/6 56/14/6
f 10/16/7 7/23/7 8/17/7
f 3/19/7 10/16/7 11/18/7
f 13/16/1 15/75/1 18/22/1
f 18/22/1 6/37/1 12/23/1
f 8/24/10 48/61/21 46/25/5
f 18/22/1 15/75/1 19/76/1
f 20/26/1 16/3/1 17/2/1
f 18/22/1 19/76/1 20/26/1
f 36/29/11 40/43/11 42/27/11
f 42/27/11 2/24/11 1/28/11
f 22/30/8 24/77/3 54/31/3
f 24/33/3 23/35/4 55/34/4
f 23/35/4 21/65/6 56/14/6
f 6/37/1 18/22/1 17/2/1
f 17/2/1 11/66/1 8/36/1
f 5/19/7 41/47/12 31/38/12
f 41/40/11 5/78/11 3/39/11
f 3/39/11 2/24/11 42/27/11
f 55/34/4 56/14/6 16/41/6
f 1/28/11 35/79/11 38/42/11
f 38/42/11 39/70/11 36/29/11
f 28/38/13 30/58/14 38/46/14
f 30/48/14 29/51/15 39/49/15
f 29/51/15 27/59/16 36/52/16
f 32/53/17 34/56/18 43/54/18
f 34/56/18 33/80/19 44/57/19
f 33/58/19 31/38/12 41/47/12
f 40/55/17 36/52/16 27/59/16
f 45/60/11 46/25/11 48/61/11
f 45/60/11 49/64/11 50/11/11
f 8/24/10 7/39/20 47/62/20
f 35/47/13 52/4/2 51/6/2
f 53/32/8 54/31/3 19/63/3
f 53/32/8 37/21/9 14/64/9
f 57/15/2 56/14/6 21/65/6
f 1/13/11 57/15/11 52/4/11
f 25/19/11 52/4/11 57/15/11
f 59/1/1 58/49/1 70/3/1
f 70/3/1 71/2/1 68/66/1
f 80/5/7 79/19/7 103/4/7
f 74/8/22 106/34/22 105/67/23
f 50/11/5 99/25/5 63/10/5
f 107/14/24 70/41/24 58/13/7
f 65/17/2 64/23/2 67/16/2
f 68/18/2 67/16/2 60/19/2
f 37/21/9 13/12/9 69/20/25
f 72/22/1 69/75/1 13/16/1
f 13/16/1 12/23/1 63/37/1
f 99/25/5 101/61/41 65/24/26
f 73/76/1 69/75/1 72/22/1
f 72/22/1 71/2/1 70/3/1
f 74/26/1 73/76/1 72/22/1
f 95/27/11 93/43/11 90/29/11
f 90/29/11 58/28/11 59/24/11
f 105/69/23 78/77/23 76/30/25
f 106/34/22 77/35/22 78/33/23
f 107/14/24 75/65/24 77/35/22
f 71/2/1 72/22/1 63/37/1
f 63/37/1 65/36/1 68/66/1
f 85/38/13 94/47/13 62/19/2
f 60/39/11 62/78/11 94/40/11
f 94/40/11 95/27/11 59/24/11
f 70/41/24 107/14/24 106/34/22
f 91/42/11 89/79/11 58/28/11
f 58/28/11 90/29/11 92/70/11
f 91/46/19 84/58/19 82/38/12
f 92/49/18 83/51/18 84/48/19
f 90/52/17 81/59/17 83/51/18
f 96/54/15 88/56/15 86/53/16
f 97/57/14 87/80/14 88/56/15
f 94/47/13 85/38/13 87/58/14
f 81/59/17 90/52/17 93/55/16
f 101/61/11 99/25/11 98/60/11
f 50/11/11 49/64/11 98/60/11
f 65/24/26 101/61/41 100/62/27
f 73/63/23 105/69/23 104/68/25
f 14/64/9 37/21/9 104/68/25
f 75/65/24 107/14/24 108/15/7
f 58/13/11 89/47/11 103/4/11
f 108/15/11 103/4/11 79/19/11
f 110/1/28 109/49/28 117/3/28
f 117/3/28 118/2/28 113/66/28
f 26/5/2 25/19/2 144/4/2
f 121/8/4 147/34/4 146/7/3
f 142/11/29 140/25/29 111/10/29
f 148/14/6 117/41/6 109/13/2
f 112/17/7 7/23/7 10/16/7
f 113/18/7 10/16/7 3/19/7
f 119/22/28 116/75/28 115/16/28
f 115/16/28 114/23/28 111/37/28
f 140/25/29 141/61/42 112/24/30
f 120/76/28 116/75/28 119/22/28
f 119/22/28 118/2/28 117/3/28
f 121/26/28 120/76/28 119/22/28
f 137/27/11 135/43/11 131/29/11
f 131/29/11 109/28/11 110/24/11
f 146/31/3 24/77/3 22/30/8
f 147/34/4 23/35/4 24/33/3
f 148/14/6 21/65/6 23/35/4
f 118/2/28 119/22/28 111/37/28
f 111/37/28 112/36/28 113/66/28
f 126/38/31 136/47/31 5/19/7
f 3/39/11 5/78/11 136/40/11
f 136/40/11 137/27/11 110/24/11
f 117/41/6 148/14/6 147/34/4
f 133/42/11 130/79/11 109/28/11
f 109/28/11 131/29/11 134/70/11
f 133/46/32 125/58/32 123/38/33
f 134/49/34 124/51/34 125/48/32
f 131/52/35 122/59/35 124/51/34
f 138/54/36 129/56/36 127/53/37
f 139/57/38 128/80/38 129/56/36
f 136/47/31 126/38/31 128/58/38
f 122/59/35 131/52/35 135/55/37
f 141/61/11 140/25/11 45/60/11
f 142/11/11 49/64/11 45/60/11
f 112/24/30 141/61/42 47/62/20
f 143/6/2 144/4/2 130/47/33
f 120/63/3 146/31/3 145/32/8
f 14/64/9 132/71/9 145/32/8
f 21/65/6 148/14/6 149/15/2
f 109/13/11 130/47/11 144/4/11
f 149/15/11 144/4/11 25/19/11
f 156/3/28 150/49/28 151/1/28
f 151/1/28 154/66/28 157/2/28
f 181/4/7 79/19/7 80/5/7
f 183/72/23 184/34/22 160/8/22
f 152/10/29 178/25/29 142/11/29
f 150/13/7 156/41/24 185/14/24
f 67/16/2 64/23/2 153/17/2
f 60/19/2 67/16/2 154/18/2
f 155/20/25 115/12/9 132/71/9
f 115/16/28 155/75/28 158/22/28
f 158/22/28 152/37/28 114/23/28
f 153/24/39 179/61/40 178/25/29
f 158/22/28 155/75/28 159/76/28
f 160/26/28 156/3/28 157/2/28
f 158/22/28 159/76/28 160/26/28
f 170/29/11 173/43/11 175/27/11
f 175/27/11 151/24/11 150/28/11
f 76/30/25 78/77/23 183/74/23
f 78/33/23 77/35/22 184/34/22
f 77/35/22 75/65/24 185/14/24
f 152/37/28 158/22/28 157/2/28
f 157/2/28 154/66/28 153/36/28
f 62/19/2 174/47/33 165/38/33
f 174/40/11 62/78/11 60/39/11
f 60/39/11 151/24/11 175/27/11
f 184/34/22 185/14/24 156/41/24
f 150/28/11 169/79/11 171/42/11
f 171/42/11 172/70/11 170/29/11
f 162/38/31 164/58/38 171/46/38
f 164/48/38 163/51/36 172/49/36
f 163/51/36 161/59/37 170/52/37
f 166/53/35 168/56/34 176/54/34
f 168/56/34 167/80/32 177/57/32
f 167/58/32 165/38/33 174/47/33
f 173/55/35 170/52/37 161/59/37
f 98/60/11 178/25/11 179/61/11
f 98/60/11 49/64/11 142/11/11
f 153/24/39 64/39/27 100/62/27
f 182/73/25 183/74/23 159/63/23
f 182/73/25 132/71/9 14/64/9
f 186/15/7 185/14/24 75/65/24
f 150/13/11 186/15/11 181/4/11
f 79/19/11 181/4/11 186/15/11
