# Blender 4.4.3
# www.blender.org
o sky
v -1.406250 4.871393 2.435696
v -2.435697 2.812500 4.218750
v -2.812500 0.000000 4.871392
v -2.435697 -2.812500 4.218750
v -2.812500 4.871393 -0.000001
v -4.871393 2.812500 -0.000001
v -5.625000 0.000000 -0.000001
v -4.871393 -2.812500 -0.000001
v -1.406250 4.871393 -2.435697
v -2.435696 2.812500 -4.218751
v -2.812499 0.000000 -4.871394
v -2.435696 -2.812500 -4.218751
v 1.406251 4.871393 -2.435697
v 2.435698 2.812500 -4.218750
v 2.812502 0.000000 -4.871393
v 2.435698 -2.812500 -4.218750
v 0.000000 5.625000 -0.000001
v 2.812500 4.871393 0.000000
v 4.871393 2.812500 0.000001
v 5.625001 0.000000 0.000001
v 4.871393 -2.812500 0.000001
v 1.406250 4.871393 2.435697
v 2.435695 2.812500 4.218750
v 2.812499 0.000000 4.871394
v 2.435695 -2.812500 4.218750
vn 0.2793 -0.8295 -0.4837
vn 0.4421 -0.4671 -0.7657
vn 0.5000 -0.0000 -0.8660
vn 0.4830 0.2588 -0.8365
vn 0.5585 -0.8295 -0.0000
vn 0.8842 -0.4671 -0.0000
vn 1.0000 -0.0000 -0.0000
vn 0.9659 0.2588 -0.0000
vn 0.2793 -0.8295 0.4837
vn 0.4421 -0.4671 0.7657
vn 0.5000 -0.0000 0.8660
vn 0.4830 0.2588 0.8365
vn -0.2793 -0.8295 0.4837
vn -0.4421 -0.4671 0.7657
vn -0.5000 -0.0000 0.8660
vn -0.4830 0.2588 0.8365
vn -0.0000 -1.0000 -0.0000
vn -0.5585 -0.8295 -0.0000
vn -0.8842 -0.4671 -0.0000
vn -1.0000 -0.0000 -0.0000
vn -0.9659 0.2588 -0.0000
vn -0.2793 -0.8295 -0.4837
vn -0.4421 -0.4671 -0.7657
vn -0.5000 -0.0000 -0.8660
vn -0.4830 0.2588 -0.8365
vt 0.500000 0.333333
vt 0.666667 0.500000
vt 0.666667 0.333333
vt 0.500000 0.666667
vt 0.666667 0.833333
vt 0.666667 0.666667
vt 0.500000 0.833333
vt 0.583333 1.000000
vt 0.333333 0.666667
vt 0.333333 0.500000
vt 0.500000 0.500000
vt 0.333333 0.833333
vt 0.416667 1.000000
vt 0.333333 0.333333
vt 0.166667 0.500000
vt 0.166667 0.833333
vt 0.250000 1.000000
vt 0.166667 0.333333
vt 0.166667 0.666667
vt 0.000000 0.500000
vt 0.000000 0.833333
vt 0.083333 1.000000
vt 0.000000 0.333333
vt 0.833333 0.500000
vt 1.000000 0.666667
vt 1.000000 0.500000
vt 1.000000 0.833333
vt 0.833333 0.833333
vt 0.916667 1.000000
vt 1.000000 0.333333
vt 0.833333 0.666667
vt 0.750000 1.000000
vt 0.833333 0.333333
vt 0.000000 0.666667
s 1
f 8/1/8 3/2/3 4/3/4
f 6/4/6 1/5/1 2/6/2
f 3/2/3 6/4/6 2/6/2
f 1/5/1 5/7/5 17/8/17
f 10/9/10 5/7/5 6/4/6
f 11/10/11 6/4/6 7/11/7
f 5/7/5 9/12/9 17/13/17
f 12/14/12 7/11/7 8/1/8
f 15/15/15 10/9/10 11/10/11
f 9/12/9 13/16/13 17/17/17
f 16/18/16 11/10/11 12/14/12
f 14/19/14 9/12/9 10/9/10
f 20/20/20 14/19/14 15/15/15
f 13/16/13 18/21/18 17/22/17
f 21/23/21 15/15/15 16/18/16
f 14/19/14 18/21/18 13/16/13
f 24/24/24 19/25/19 20/26/20
f 18/27/18 22/28/22 17/29/17
f 21/30/21 24/24/24 20/26/20
f 19/25/19 22/28/22 18/27/18
f 24/24/24 2/6/2 23/31/23
f 22/28/22 1/5/1 17/32/17
f 4/3/4 24/24/24 25/33/25
f 2/6/2 22/28/22 23/31/23
f 8/1/8 7/11/7 3/2/3
f 6/4/6 5/7/5 1/5/1
f 3/2/3 7/11/7 6/4/6
f 10/9/10 9/12/9 5/7/5
f 11/10/11 10/9/10 6/4/6
f 12/14/12 11/10/11 7/11/7
f 15/15/15 14/19/14 10/9/10
f 16/18/16 15/15/15 11/10/11
f 14/19/14 13/16/13 9/12/9
f 20/20/20 19/34/19 14/19/14
f 21/23/21 20/20/20 15/15/15
f 14/19/14 19/34/19 18/21/18
f 24/24/24 23/31/23 19/25/19
f 21/30/21 25/33/25 24/24/24
f 19/25/19 23/31/23 22/28/22
f 24/24/24 3/2/3 2/6/2
f 4/3/4 3/2/3 24/24/24
f 2/6/2 1/5/1 22/28/22
